<?xml version="1.0" encoding="utf-8"?>
<!-- Generator: Adobe Illustrator 23.0.1, SVG Export Plug-In . SVG Version: 6.00 Build 0)  -->
<svg version="1.1" id="Layer_1" xmlns="http://www.w3.org/2000/svg" xmlns:xlink="http://www.w3.org/1999/xlink" x="0px" y="0px"
	 viewBox="0 0 64 64" style="enable-background:new 0 0 64 64;" xml:space="preserve">
<style type="text/css">
	.st0{fill:#262262;}
</style>
<g>
	<g>
		<path class="st0" d="M31.48,4.1c7.51,0,15.02,0.06,22.53-0.03c2.82-0.03,4.55,2.05,4.53,4.53c-0.06,10.12-0.02,20.25-0.02,30.37
			c0,2.76-1.69,4.46-4.45,4.46c-15.08,0-30.16,0-45.24,0c-2.16,0-3.78-1.24-4.22-3.25c-0.08-0.35-0.07-0.72-0.07-1.08
			c0-10.23,0-20.46,0-30.69c0-2.63,1.65-4.3,4.29-4.31C16.38,4.09,23.93,4.1,31.48,4.1z M31.53,6.52c-7.53,0-15.06,0-22.59,0
			c-1.45,0-2,0.55-2,2.01c0,10.15,0,20.29,0,30.44c0,1.45,0.59,2.04,2.05,2.04c15.02,0,30.04,0,45.06,0c1.43,0,2.05-0.62,2.05-2.07
			c0-10.13,0-20.25,0-30.38c0-1.47-0.57-2.05-2.04-2.05C46.55,6.52,39.04,6.52,31.53,6.52z"/>
		<path class="st0" d="M13.92,35.92c-0.79,0-1.53,0-2.32,0c0-8.11,0-16.2,0-24.33c0.75,0,1.51,0,2.32,0
			C13.92,19.66,13.92,27.76,13.92,35.92z"/>
		<path class="st0" d="M19.09,35.9c-0.81,0-1.56,0-2.35,0c0-8.11,0-16.19,0-24.31c0.78,0,1.55,0,2.35,0
			C19.09,19.69,19.09,27.76,19.09,35.9z"/>
		<path class="st0" d="M30.96,35.9c-0.81,0-1.56,0-2.35,0c0-8.11,0-16.19,0-24.31c0.78,0,1.55,0,2.35,0
			C30.96,19.69,30.96,27.76,30.96,35.9z"/>
		<path class="st0" d="M26.43,11.59c-0.79,0-1.54,0-2.29,0l0,0c-0.81,0-1.56,0-2.32,0c0,8.13,0,16.22,0,24.32c0.8,0,1.55,0,2.32,0
			l0,0c0.77,0,1.51,0,2.29,0C26.43,27.76,26.43,19.68,26.43,11.59z"/>
		<path class="st0" d="M35.19,11.57c0,0.01,0,0.01,0,0.02c-0.79,0-1.53,0-2.27,0c0,8.13,0,16.2,0,24.31c0.77,0,1.51,0,2.27,0l0,0
			c0.79,0,1.55,0,2.34,0c0-8.13,0-16.22,0-24.33C36.73,11.57,35.98,11.57,35.19,11.57z"/>
		<path class="st0" d="M39.92,11.57c0.81,0,1.55,0,2.33,0c0,8.12,0,16.21,0,24.34c-0.78,0-1.54,0-2.33,0
			C39.92,27.79,39.92,19.7,39.92,11.57z"/>
		<path class="st0" d="M52.22,35.9c-0.8,0-1.56,0-2.35,0c0-8.11,0-16.19,0-24.32c0.77,0,1.54,0,2.35,0
			C52.22,19.68,52.22,27.76,52.22,35.9z"/>
		<path class="st0" d="M45.51,11.57c0.79,0,1.54,0,2.34,0c0,8.11,0,16.2,0,24.33c-0.79,0-1.54,0-2.34,0
			C45.51,27.79,45.51,19.7,45.51,11.57z"/>
	</g>
</g>
<g id="Layer_3">
	<g>
		<path d="M51.64,58.72h-4.86v-7.18h-7.22V46.6h7.22v-7.22h4.86v7.22h7.26v4.94h-7.26V58.72z"/>
	</g>
</g>
</svg>
