<?xml version="1.0" encoding="utf-8"?>
<!-- Generator: Adobe Illustrator 23.0.1, SVG Export Plug-In . SVG Version: 6.00 Build 0)  -->
<svg version="1.1" id="Layer_1" xmlns="http://www.w3.org/2000/svg" xmlns:xlink="http://www.w3.org/1999/xlink" x="0px" y="0px"
	 viewBox="0 0 64 64" style="enable-background:new 0 0 64 64;" xml:space="preserve">
<style type="text/css">
	.st0{fill:#262262;}
	.st1{fill:#BE1E2D;}
</style>
<g id="Layer_2_copy">
	<g>
		<g>
			<path class="st0" d="M40.5,20.4c5.5,0,11,0,16.6,0c2.1,0,3.3,1.5,3.3,3.3c0,7.4,0,14.9,0,22.3c0,2-1.2,3.3-3.3,3.3
				c-11.1,0-22.2,0-33.3,0c-1.6,0-2.8-0.9-3.1-2.4c-0.1-0.3,0-0.5,0-0.8c0-7.5,0-15,0-22.6c0-1.9,1.2-3.2,3.2-3.2
				C29.4,20.4,34.9,20.4,40.5,20.4z M40.5,22.2c-5.5,0-11.1,0-16.6,0c-1.1,0-1.5,0.4-1.5,1.5c0,7.5,0,14.9,0,22.4
				c0,1.1,0.4,1.5,1.5,1.5c11,0,22.1,0,33.1,0c1.1,0,1.5-0.5,1.5-1.5c0-7.4,0-14.9,0-22.3c0-1.1-0.4-1.5-1.5-1.5
				C51.6,22.2,46,22.2,40.5,22.2z"/>
			<path class="st0" d="M27.6,43.8c-0.6,0-1.1,0-1.7,0c0-6,0-11.9,0-17.9c0.5,0,1.1,0,1.7,0C27.6,31.8,27.6,37.8,27.6,43.8z"/>
			<path class="st0" d="M31.4,43.8c-0.6,0-1.2,0-1.7,0c0-6,0-11.9,0-17.9c0.6,0,1.1,0,1.7,0C31.4,31.8,31.4,37.8,31.4,43.8z"/>
			<path class="st0" d="M40.1,43.8c-0.6,0-1.2,0-1.7,0c0-6,0-11.9,0-17.9c0.6,0,1.1,0,1.7,0C40.1,31.8,40.1,37.8,40.1,43.8z"/>
			<path class="st0" d="M36.8,25.9c-0.6,0-1.1,0-1.7,0l0,0c-0.6,0-1.2,0-1.7,0c0,6,0,11.9,0,17.9c0.6,0,1.1,0,1.7,0l0,0
				c0.6,0,1.1,0,1.7,0C36.8,37.8,36.8,31.8,36.8,25.9z"/>
			<path class="st0" d="M43.2,25.9L43.2,25.9c-0.6,0-1.1,0-1.7,0c0,6,0,11.9,0,17.9c0.6,0,1.1,0,1.7,0l0,0c0.6,0,1.1,0,1.7,0
				c0-6,0-11.9,0-17.9C44.4,25.9,43.8,25.9,43.2,25.9z"/>
			<path class="st0" d="M46.7,25.9c0.6,0,1.1,0,1.7,0c0,6,0,11.9,0,17.9c-0.6,0-1.1,0-1.7,0C46.7,37.8,46.7,31.8,46.7,25.9z"/>
			<path class="st0" d="M55.7,43.8c-0.6,0-1.1,0-1.7,0c0-6,0-11.9,0-17.9c0.6,0,1.1,0,1.7,0C55.7,31.8,55.7,37.8,55.7,43.8z"/>
			<path class="st0" d="M50.8,25.9c0.6,0,1.1,0,1.7,0c0,6,0,11.9,0,17.9c-0.6,0-1.1,0-1.7,0C50.8,37.8,50.8,31.8,50.8,25.9z"/>
		</g>
		<g>
			<path class="st1" d="M9.9,17.5c-1.6,0-3.1,0-4.7,0c-1.9,0-3.3-1.4-3.3-3.3c0-2.9,0-5.7,0-8.6c0-1.9,1.5-3.3,3.4-3.3
				c3.1,0,6.2,0,9.3,0c1.9,0,3.4,1.5,3.4,3.3c0,2.8,0,5.7,0,8.5c0,1.9-1.4,3.3-3.3,3.4c-0.1,0-0.1,0-0.1,0
				C13,17.5,11.5,17.5,9.9,17.5L9.9,17.5z M9.9,4c-1.5,0-3,0-4.5,0C4.2,4,3.6,4.6,3.6,5.8c0,2.7,0,5.4,0,8.1c0,1.3,0.6,1.9,1.9,1.9
				c3,0,5.9,0,8.9,0c1.2,0,1.9-0.6,1.9-1.9c0-2.7,0-5.4,0-8.1c0-1.1-0.6-1.9-1.9-1.9C12.9,4,11.4,4,9.9,4z"/>
			<path class="st1" d="M28.6,17.5c-1.5,0-3,0-4.5,0c-2,0-3.5-1.6-3.5-3.5c0.1-2.8,0-5.5,0-8.3c0-1.9,1.5-3.4,3.4-3.4
				c3.1,0,6.1,0,9.2,0c2,0,3.5,1.4,3.5,3.4c0,2.8,0,5.6,0,8.3c0,2-1.5,3.4-3.5,3.4C31.7,17.5,30.1,17.5,28.6,17.5z M28.6,4
				c-1.5,0-3,0-4.5,0c-1.3,0-1.9,0.6-1.9,1.9c0,2.7,0,5.4,0,8.1c0,1.2,0.6,1.9,1.9,1.9c3,0,6,0,8.9,0c1.2,0,1.9-0.7,1.9-1.9
				c0-2.7,0-5.4,0-8.1C35,4.7,34.3,4,33.1,4C31.6,4,30.1,4,28.6,4z"/>
			<path class="st1" d="M9.8,20.3c1.5,0,3,0,4.5,0c1.9,0,3.3,1.4,3.2,3.3c0,2.8,0,5.5,0,8.3c0,1.9-1.5,3.5-3.4,3.4
				c-2.9-0.1-5.9,0-8.9,0c-1.8,0-3.3-1.5-3.3-3.3c0-2.8,0-5.6,0-8.4c0-1.9,1.4-3.3,3.3-3.3C6.8,20.3,8.3,20.3,9.8,20.3z M9.9,21.8
				c-1.5,0-3,0-4.5,0c-1.1,0-1.7,0.7-1.7,1.7c0,2.7,0,5.4,0,8.1c0,1,0.7,1.7,1.7,1.7c3,0,6.1,0,9.1,0c1,0,1.7-0.7,1.7-1.7
				c0-2.7,0-5.4,0-8.1c0-1-0.7-1.7-1.7-1.7C12.8,21.8,11.4,21.8,9.9,21.8z"/>
			<path class="st1" d="M17.6,18.8c0-0.4,0-0.7,0-1.1c0-0.3,0.1-0.4,0.4-0.4c0.7,0,1.4,0,2.2,0c0.3,0,0.4,0.1,0.4,0.4
				c0,0.7,0,1.5,0,2.2c0,0.3-0.1,0.4-0.4,0.4c-0.7,0-1.5,0-2.2,0c-0.3,0-0.4-0.1-0.4-0.4C17.6,19.6,17.6,19.2,17.6,18.8z"/>
			<path class="st1" d="M12.4,7.1c0,1.7,0,3.3,0,5c-1.7,0-3.3,0-5,0c0-1.6,0-3.3,0-5C9.1,7.1,10.8,7.1,12.4,7.1z"/>
			<path class="st1" d="M26.5,7.1c1.7,0,3.3,0,5,0c0,1.7,0,3.3,0,5c-1.7,0-3.3,0-5,0C26.5,10.5,26.5,8.8,26.5,7.1z"/>
			<path class="st1" d="M7.4,24.9c1.6,0,3.2,0,4.9,0c0,1.6,0,3.2,0,4.9c-1.6,0-3.2,0-4.9,0C7.4,28.2,7.4,26.6,7.4,24.9z"/>
		</g>
	</g>
</g>
</svg>
