<?xml version="1.0" encoding="utf-8"?>
<!-- Generator: Adobe Illustrator 23.0.1, SVG Export Plug-In . SVG Version: 6.00 Build 0)  -->
<svg version="1.1" id="Layer_1" xmlns="http://www.w3.org/2000/svg" xmlns:xlink="http://www.w3.org/1999/xlink" x="0px" y="0px"
	 viewBox="0 0 64 64" style="enable-background:new 0 0 64 64;" xml:space="preserve">
<style type="text/css">
	.st0{fill:#BE1E2D;}
</style>
<g>
	<g>
		<path class="st0" d="M17.23,30.01c-2.45,0-4.89,0.04-7.34-0.01c-2.94-0.06-5.18-2.23-5.21-5.17c-0.06-4.5-0.06-9,0-13.5
			c0.04-2.97,2.37-5.17,5.33-5.18c4.85-0.01,9.7-0.01,14.55,0c2.97,0,5.29,2.29,5.31,5.26c0.02,4.44,0.02,8.88,0,13.32
			c-0.01,2.9-2.23,5.15-5.13,5.26c-0.08,0-0.16,0.01-0.23,0.01C22.08,30.01,19.66,30.01,17.23,30.01L17.23,30.01z M17.26,8.8
			c-2.37,0-4.73-0.01-7.1,0c-1.83,0.01-2.83,1.01-2.83,2.84c0,4.26,0,8.53,0,12.79c0,1.95,1,2.95,2.97,2.95c4.66,0,9.31,0,13.97,0
			c1.94,0,2.94-0.99,2.94-2.91c0-4.25-0.04-8.49,0.02-12.74c0.03-1.67-1.02-2.99-2.92-2.95C21.96,8.85,19.61,8.8,17.26,8.8z"/>
		<path class="st0" d="M46.58,30.01c-2.37,0-4.74-0.05-7.1,0.01c-3.15,0.09-5.56-2.5-5.5-5.5C34.06,20.18,34,15.84,34,11.49
			c0-3.06,2.27-5.33,5.34-5.34c4.79-0.01,9.59,0,14.38,0c3.19,0,5.45,2.2,5.47,5.4c0.03,4.36,0.03,8.73,0,13.09
			c-0.02,3.16-2.27,5.35-5.44,5.37C51.36,30.02,48.97,30.01,46.58,30.01z M46.61,8.8c-2.35,0-4.7,0-7.04,0
			c-1.96,0-2.92,0.96-2.92,2.92c0,4.25,0,8.49,0,12.74c0,1.93,1,2.93,2.93,2.93c4.68,0,9.35,0,14.03,0c1.91,0,2.94-1.03,2.94-2.94
			c0-4.25,0-8.49,0-12.74c0-1.89-1-2.9-2.89-2.91C51.31,8.8,48.96,8.8,46.61,8.8z"/>
		<path class="st0" d="M17.11,34.34c2.37,0,4.74,0,7.1,0c2.95,0.01,5.1,2.19,5.09,5.12c-0.02,4.32-0.05,8.65,0.01,12.97
			c0.04,3-2.28,5.46-5.37,5.41c-4.64-0.09-9.28-0.02-13.91-0.02c-2.84,0-5.15-2.3-5.15-5.15c-0.01-4.4-0.01-8.81,0-13.21
			c0.01-2.9,2.24-5.12,5.13-5.13C12.38,34.34,14.75,34.34,17.11,34.34z M17.15,36.8c-2.37,0-4.73,0-7.1,0
			c-1.66,0-2.71,1.06-2.72,2.71c0,4.26,0,8.53,0,12.79c0,1.58,1.05,2.69,2.62,2.7c4.75,0.02,9.51,0.02,14.26,0
			c1.57-0.01,2.63-1.12,2.63-2.69c0-4.26,0-8.53,0-12.79c0-1.66-1.06-2.72-2.71-2.72C21.8,36.79,19.48,36.8,17.15,36.8z"/>
		<path class="st0" d="M34.36,38.42c0-1.12,0-2.24,0-3.36c0-0.85,0.44-1.29,1.28-1.3c2.26,0,4.52,0,6.78,0
			c0.8,0,1.25,0.42,1.26,1.21c0.02,2.29,0.02,4.58,0,6.88c-0.01,0.8-0.44,1.22-1.25,1.22c-2.28,0.01-4.55,0.02-6.83,0
			c-0.82-0.01-1.23-0.46-1.23-1.29C34.35,40.66,34.36,39.54,34.36,38.42z"/>
		<path class="st0" d="M37.63,57.82c-0.49,0-0.98,0.01-1.46,0c-0.7-0.03-1.21-0.53-1.22-1.24c-0.02-0.98-0.02-1.95,0-2.93
			c0.01-0.7,0.43-1.22,1.14-1.25c1.05-0.06,2.11-0.05,3.16,0c0.66,0.03,1.09,0.47,1.13,1.14c0.05,1.03,0.05,2.07,0,3.1
			c-0.04,0.76-0.56,1.17-1.33,1.19C38.57,57.83,38.1,57.82,37.63,57.82z"/>
		<path class="st0" d="M56.7,33.97c0.37,0,0.74-0.01,1.12,0c0.89,0.03,1.54,0.69,1.55,1.58c0.01,0.68,0.01,1.37,0,2.05
			c-0.01,0.91-0.66,1.61-1.56,1.64c-0.72,0.03-1.45,0.03-2.17,0c-0.87-0.04-1.52-0.74-1.54-1.62c-0.01-0.7-0.01-1.41,0-2.11
			c0.02-0.92,0.59-1.5,1.49-1.54C55.95,33.95,56.32,33.97,56.7,33.97z"/>
		<path class="st0" d="M21.19,13.72c0,2.6,0,5.18,0,7.8c-2.6,0-5.19,0-7.82,0c0-2.58,0-5.17,0-7.8
			C15.95,13.72,18.54,13.72,21.19,13.72z"/>
		<path class="st0" d="M43.22,13.7c2.65,0,5.24,0,7.87,0c0,2.6,0,5.18,0,7.8c-2.61,0-5.22,0-7.87,0
			C43.22,18.92,43.22,16.33,43.22,13.7z"/>
		<path class="st0" d="M13.37,41.67c2.55,0,5.06,0,7.63,0c0,2.55,0,5.09,0,7.67c-2.54,0-5.07,0-7.63,0
			C13.37,46.8,13.37,44.26,13.37,41.67z"/>
	</g>
</g>
<g id="Layer_3">
	<g>
		<path d="M51.64,58.72h-4.86v-7.18h-7.22V46.6h7.22v-7.22h4.86v7.22h7.26v4.94h-7.26V58.72z"/>
	</g>
</g>
</svg>
